# xmcd
#
# Track frame offsets:
#	150
#	16447
#	35650
#	47580
#	61447
#	77862
#	93950
#	110552
#	128979
#	139922
#
# Disc length: 2058 seconds
#
# Revision: 0
# Processed by: cddbd v1.4PL0 Copyright (c) Steve Scherf et al.
# Submitted via: dBpowerAMP V4.0
#
DISCID=8908080a
DTITLE=Nora Lynn - Small Towon Girl
DYEAR=1900
DGENRE=
TTITLE0=My Heart
TTITLE1=Just Say Goodbye
TTITLE2=Diamond In The Rough
TTITLE3=Lovin' Too Much
TTITLE4=Lock On My Door
TTITLE5=When It's Too Late
TTITLE6=I've Been Alone Enought To Know
TTITLE7=Please Light The Fire Again
TTITLE8=All Dressed Up
TTITLE9=Pass A Little Love On
EXTD=\n\n                                                                                Les
EXTT0=
EXTT1=
EXTT2=
EXTT3=
EXTT4=
EXTT5=
EXTT6=
EXTT7=
EXTT8=
EXTT9=
PLAYORDER=
